<?xml version="1.0" standalone="no"?><!DOCTYPE svg PUBLIC "-//W3C//DTD SVG 1.1//EN" "http://www.w3.org/Graphics/SVG/1.1/DTD/svg11.dtd"><svg t="1712585717328" class="icon" viewBox="0 0 1365 1024" version="1.1" xmlns="http://www.w3.org/2000/svg" p-id="7826" xmlns:xlink="http://www.w3.org/1999/xlink" width="266.6015625" height="200"><path d="M1079.978667 258.935467C1025.774933 104.789333 869.512533 0 679.253333 0 495.889067 0 339.626667 104.789333 278.528 246.5792 115.5072 295.936 0 437.725867 0 598.016c0 209.578667 190.190933 376.149333 427.963733 376.149333 54.340267 0 482.235733 12.288 509.405867 12.288 237.7728 0 427.963733-166.434133 427.963733-376.149333-6.826667-160.221867-122.2656-302.011733-285.354666-351.368533z m-149.367467 567.227733h-169.847467s-264.874667-12.288-258.048-240.4352c-6.826667-37.000533-40.823467-61.6448-88.337066-61.6448-40.7552 0-74.752 24.576-81.5104 55.432533v30.856534c0 80.145067 27.170133 154.146133 74.683733 209.578666-135.850667-6.144-244.5312-104.789333-244.5312-221.866666 0-67.857067 33.9968-129.501867 88.337067-172.714667 47.5136-36.932267 101.853867-55.432533 169.7792-55.432533h6.826666c54.340267 0 95.095467 18.432 135.850667 43.144533 6.826667 6.144 13.585067 12.288 27.170133 18.432 47.5136 37.0688 81.5104 92.5696 81.5104 154.2144v30.788267c13.585067 30.856533 40.7552 55.5008 81.5104 55.5008h169.7792s101.922133-12.288 81.5104-98.645334c-13.585067-30.856533-40.7552-55.5008-81.5104-55.5008H828.757333c-6.826667-49.288533-20.343467-67.7888-47.5136-110.933333-6.826667-12.356267-20.411733-24.712533-27.170133-37.000533a281.053867 281.053867 0 0 0-81.5104-67.857067c-27.170133-18.432-47.581867-30.788267-81.5104-43.144533-20.411733-12.288-61.166933-24.644267-101.922133-30.788267A263.918933 263.918933 0 0 1 679.253333 148.002133c81.5104 0 156.2624 36.932267 203.776 86.289067 0 6.144 6.826667 12.288 6.826667 18.432 27.170133 37.0688 40.7552 80.213333 40.7552 123.357867 61.098667 0 122.197333 18.500267 163.0208 55.5008 54.340267 43.144533 88.2688 104.789333 88.2688 172.6464 6.826667 117.1456-108.680533 221.866667-251.2896 221.866666z" fill="#C62828" p-id="7827"></path></svg>